<svg width="32" height="32" viewBox="0 0 40 40" fill="none" xmlns="http://www.w3.org/2000/svg">
  <defs>
    <linearGradient id="fg" x1="0" y1="0" x2="40" y2="40" gradientUnits="userSpaceOnUse">
      <stop stop-color="#00FF88" />
      <stop offset="0.5" stop-color="#00D4FF" />
      <stop offset="1" stop-color="#A855F7" />
    </linearGradient>
    <radialGradient id="bg" cx="50%" cy="40%" r="60%">
      <stop offset="0" stop-color="#1a1a2e" />
      <stop offset="1" stop-color="#0a0a0a" />
    </radialGradient>
  </defs>
  <path d="M20 3L35.32 11.5V28.5L20 37L4.68 28.5V11.5L20 3Z" fill="url(#bg)" stroke="url(#fg)" stroke-width="1.2" />
  <circle cx="20" cy="18" r="4.5" stroke="url(#fg)" stroke-width="1" fill="none" />
  <line x1="20" y1="13.5" x2="20" y2="8" stroke="#00FF88" stroke-width="0.8" stroke-linecap="round" />
  <line x1="15.5" y1="18" x2="10" y2="15" stroke="#00D4FF" stroke-width="0.8" stroke-linecap="round" />
  <line x1="24.5" y1="18" x2="30" y2="15" stroke="#A855F7" stroke-width="0.8" stroke-linecap="round" />
  <line x1="17" y1="21.5" x2="13" y2="27" stroke="#F59E0B" stroke-width="0.8" stroke-linecap="round" />
  <line x1="23" y1="21.5" x2="27" y2="27" stroke="#EC4899" stroke-width="0.8" stroke-linecap="round" />
  <circle cx="20" cy="8" r="1.5" fill="#00FF88" />
  <circle cx="10" cy="15" r="1.3" fill="#00D4FF" />
  <circle cx="30" cy="15" r="1.3" fill="#A855F7" />
  <circle cx="13" cy="27" r="1.3" fill="#F59E0B" />
  <circle cx="27" cy="27" r="1.3" fill="#EC4899" />
  <circle cx="20" cy="18" r="2" fill="url(#fg)" opacity="0.9" />
</svg>
